# xmcd CD database file
#
# Track frame offsets:
#	225
#	11519
#	27668
#	41070
#	51793
#	64752
#	75865
#	86333
#	99747
#	118833
#	130297
#	140050
#	148615
#	161538
#	179253
#	186579
#
# Disc length: 2661 seconds
#
# Revision: 2
# Processed by: cddbd v1.4b41PL1 Copyright (c) Steve Scherf et al.
# Submitted via: Feurio! 1.50.2ß - http://www.feurio.com
#
DISCID=e20a6210
DTITLE=Various Artist - Kuckucksuhr-Melodie
DYEAR=1900
DGENRE=
TTITLE0=??? - Gruß aus dem Schwarzwald - Der Slippi-Chor
TTITLE1=??? - O Schwarzwald o Heimat - Schwarzwald Trio Seitz
TTITLE2=??? - Die Mühle im Schwarzwald - Orchester Walter MEtzger
TTITLE3=??? - Schwarzwaldtannen - Hellberg Duo
TTITLE4=??? - Die Schäb'sche Eisenbahn - Georg Stern und Kinderchor
TTITLE5=??? - Die Kuckucksuhr-Melodie - Rosemarie Schwab Trio
TTITLE6=Das Schwarzwald Tal - Hellberg Duo
TTITLE7=O Heilig's Blechle warum - Kathi Kuckuck
TTITLE8=Es steht eine Mühle im Schwrzwäldertal - Schönauer Thomann-Chor
TTITLE9=Lieb kleine Schwarzwälderin - Schwarzwald Trio Seitz
TTITLE10=Im Schwabenländle - Die Viertele Sänger
TTITLE11=KLeine Kuckucksuhr - Rosemarie Schwab Trio
TTITLE12=Sie Trug ein KLeid (Bodenseelied) - Die Lauteracher
TTITLE13=Durch's Wiesental gang i jetzt na - Der MAx Böge Chor
TTITLE14=Am schönen Neckar - Blasorchester Walter MEtzger
TTITLE15=Schlaf mein kleines Scheisserle - Kathi Kuckuck
EXTD=
EXTT0=
EXTT1=
EXTT2=
EXTT3=
EXTT4=
EXTT5=
EXTT6=
EXTT7=
EXTT8=
EXTT9=
EXTT10=
EXTT11=
EXTT12=
EXTT13=
EXTT14=
EXTT15=
PLAYORDER=
